<svg width="737.475" height="737.475" viewBox="0 0 29.499 29.499" xmlns="http://www.w3.org/2000/svg"><path d="M23.22 20.47V8.77a2.754 2.754 0 00-2.75-2.75H8.769a2.754 2.754 0 00-2.75 2.75v11.7a2.754 2.754 0 002.75 2.75H20.47a2.754 2.754 0 002.75-2.75zm-15.701 0V8.77c.001-.69.56-1.25 1.25-1.25H20.47c.69 0 1.249.56 1.25 1.25v11.7a1.252 1.252 0 01-1.25 1.25H8.769a1.252 1.252 0 01-1.25-1.25zm19.66-1.89h-1.57a.75.75 0 000 1.5h1.57a.82.82 0 01.82.82v6.278a.82.82 0 01-.82.82H20.9a.82.82 0 01-.82-.82v-1.57a.75.75 0 00-1.5 0v1.57a2.322 2.322 0 002.32 2.32h6.279a2.322 2.322 0 002.32-2.32V20.9a2.322 2.322 0 00-2.32-2.32zM3.889 9.42H2.32a.82.82 0 01-.82-.82V2.32a.821.821 0 01.82-.82H8.6a.82.82 0 01.819.82v1.57a.75.75 0 001.5 0V2.32A2.321 2.321 0 008.6 0H2.32A2.322 2.322 0 000 2.32V8.6a2.322 2.322 0 002.32 2.32h1.569a.75.75 0 000-1.5z"/></svg>