<?xml version="1.0" encoding="UTF-8" standalone="no"?>
<!-- Uploaded to: SVG Repo, www.svgrepo.com, Generator: SVG Repo Mixer Tools -->

<svg
   fill="#000000"
   width="737.5"
   height="737.5"
   viewBox="0 0 29.5 29.5"
   version="1.1"
   id="svg1"
   xmlns="http://www.w3.org/2000/svg"
   xmlns:svg="http://www.w3.org/2000/svg"
   xmlns:rdf="http://www.w3.org/1999/02/22-rdf-syntax-ns#"
   xmlns:cc="http://creativecommons.org/ns#"
   xmlns:dc="http://purl.org/dc/elements/1.1/">
  <defs
     id="defs1" />
  <title
     id="title1">bring-forward</title>
  <path
     d="m 21.5,18.75 v -16 C 21.498,1.232 20.268,0.002 18.75,0 h -16 C 1.232,0.002 0.002,1.232 0,2.75 v 16 c 0.002,1.518 1.232,2.748 2.75,2.75 h 16 c 1.518,-0.002 2.748,-1.232 2.75,-2.75 z m -20,0 v -16 C 1.501,2.06 2.06,1.501 2.75,1.5 h 16 c 0.69,10e-4 1.249,0.56 1.25,1.25 v 16 c -0.001,0.69 -0.56,1.249 -1.25,1.25 h -16 C 2.06,19.999 1.501,19.44 1.5,18.75 Z M 26.75,16 h -2 C 24.336,16 24,16.336 24,16.75 c 0,0.414 0.336,0.75 0.75,0.75 v 0 h 2 c 0.69,0.001 1.249,0.56 1.25,1.25 v 8 c -0.001,0.69 -0.56,1.249 -1.25,1.25 h -8 C 18.06,27.999 17.501,27.44 17.5,26.75 v -2 C 17.5,24.336 17.164,24 16.75,24 16.336,24 16,24.336 16,24.75 v 0 2 c 0.002,1.518 1.232,2.748 2.75,2.75 h 8 c 1.518,-0.002 2.748,-1.232 2.75,-2.75 v -8 C 29.498,17.232 28.268,16.002 26.75,16 Z"
     id="path1" />
  <metadata
     id="metadata1">
    <rdf:RDF>
      <cc:Work
         rdf:about="">
        <dc:title>bring-forward</dc:title>
      </cc:Work>
    </rdf:RDF>
  </metadata>
</svg>
