<?xml version="1.0" encoding="UTF-8" standalone="no"?>
<!-- Uploaded to: SVG Repo, www.svgrepo.com, Generator: SVG Repo Mixer Tools -->

<svg
   fill="#000000"
   width="737.47498"
   height="737.47498"
   viewBox="0 0 29.498999 29.498999"
   version="1.1"
   id="svg1"
   xmlns="http://www.w3.org/2000/svg"
   xmlns:svg="http://www.w3.org/2000/svg"
   xmlns:rdf="http://www.w3.org/1999/02/22-rdf-syntax-ns#"
   xmlns:cc="http://creativecommons.org/ns#"
   xmlns:dc="http://purl.org/dc/elements/1.1/">
  <defs
     id="defs1" />
  <title
     id="title1">bring-front</title>
  <path
     d="M 23.219999,20.470499 V 8.7694995 c -0.002,-1.518 -1.232,-2.748 -2.75,-2.75 H 8.7689995 c -1.518,0.002 -2.748,1.232 -2.75,2.75 V 20.470499 c 0.002,1.518 1.232,2.748 2.75,2.75 H 20.469999 c 1.518,-0.002 2.748,-1.232 2.75,-2.75 z m -15.7009995,0 V 8.7694995 c 0.001,-0.69 0.56,-1.249 1.25,-1.25 H 20.469999 c 0.690001,10e-4 1.249,0.56 1.25,1.25 V 20.470499 c -0.001,0.69 -0.559999,1.249 -1.25,1.25 H 8.7689995 c -0.69,-9.99e-4 -1.249,-0.56 -1.25,-1.25 z m 19.6599995,-1.891 h -1.57 c -0.414,0 -0.75,0.336 -0.75,0.75 0,0.414001 0.336,0.75 0.75,0.75 v 0 h 1.57 c 0,0 0,0 0,0 0.453,0 0.82,0.367001 0.82,0.82 0,0 0,0 0,0 v 0 6.279 c 0,0 0,0 0,0 0,0.453 -0.367,0.82 -0.82,0.82 0,0 0,0 0,0 h -6.279 c 0,0 0,0 0,0 -0.453,0 -0.82,-0.367 -0.82,-0.82 0,0 0,0 0,0 v 0 -1.57 c 0,-0.414 -0.336,-0.75 -0.75,-0.75 -0.414,0 -0.75,0.336 -0.75,0.75 v 0 1.57 c 0.002,1.281 1.039,2.319 2.32,2.32 h 6.279 c 1.281,-0.002 2.319,-1.039 2.32,-2.32 v -6.279 c -0.002,-1.281 -1.039,-2.319 -2.32,-2.32 z M 3.8889995,9.4194995 h -1.569 c -0.453,0 -0.82,-0.367 -0.82,-0.819 v -6.28 c 0.001,-0.453 0.368,-0.82 0.82,-0.82 h 6.28 c 0.453,10e-4 0.819,0.368 0.819,0.82 v 0 1.569 c 0,0.414 0.336,0.75 0.7500005,0.75 0.414,0 0.75,-0.336 0.75,-0.75 v 0 -1.569 c -0.001,-1.281 -1.0390005,-2.319 -2.3190005,-2.32 h -6.28 c -1.281,0.002 -2.319,1.039 -2.32,2.32 v 6.28 c 0.002,1.281 1.04,2.3180005 2.32,2.3190005 h 1.569 c 0.414,0 0.75,-0.336 0.75,-0.75 0,-0.4140005 -0.336,-0.7500005 -0.75,-0.7500005 z"
     id="path1" />
  <metadata
     id="metadata1">
    <rdf:RDF>
      <cc:Work
         rdf:about="">
        <dc:title>bring-front</dc:title>
      </cc:Work>
    </rdf:RDF>
  </metadata>
</svg>
