<svg width="716.667" height="716.667" viewBox="0 0 21.5 21.5" fill="none" xmlns="http://www.w3.org/2000/svg"><path d="M6.75 20.75h8M3.75 17.75h14M.75 14.75h20" stroke="#000" stroke-width="1.5" stroke-linecap="round" stroke-linejoin="round"/><path d="M19.817 10.607l-.642-.388zm-8.924-8.924l-.388-.642zm8.338 12.767a.75.75 0 001.374.6zm-18.336.6a.75.75 0 001.374-.6zm1.842-8.924a.75.75 0 00-1.298-.752zm2.637-4.687a.75.75 0 10.752 1.298zM14.25 13A5.75 5.75 0 018.5 7.25H7a7.25 7.25 0 007.25 7.25zm4.925-2.781A5.746 5.746 0 0114.25 13v1.5a7.247 7.247 0 006.21-3.505zM8.5 7.25a5.747 5.747 0 012.781-4.925l-.776-1.284A7.246 7.246 0 007 7.25zm11.5 3.5a9.216 9.216 0 01-.77 3.7l1.375.6c.576-1.318.895-2.773.895-4.3zm-17.73 3.7a9.216 9.216 0 01-.77-3.7H0c0 1.528.319 2.982.895 4.3zM10.75 1.5a.384.384 0 01-.268-.118.285.285 0 01-.082-.155c-.004-.031-.002-.121.105-.186l.776 1.284c.503-.304.665-.861.606-1.299C11.825.571 11.467 0 10.75 0zm9.71 9.495c-.066.107-.156.109-.187.105a.285.285 0 01-.155-.082.384.384 0 01-.118-.268h1.5c0-.717-.571-1.075-1.026-1.137-.438-.059-.995.103-1.299.606zM1.5 10.75c0-1.686.45-3.265 1.237-4.624l-1.298-.752A10.704 10.704 0 000 10.75zm4.626-8.013A9.204 9.204 0 0110.75 1.5V0C8.793 0 6.956.524 5.374 1.439z" fill="#000"/><path d="M18.65 1.057a.483.483 0 00-.9 0l-.43 1.095a.484.484 0 01-.272.274l-1.091.432a.486.486 0 000 .903l1.091.432c.125.049.223.148.272.273l.43 1.095c.162.41.74.41.9 0l.43-1.095a.484.484 0 01.273-.273l1.091-.432a.486.486 0 000-.903l-1.091-.432a.484.484 0 01-.273-.274zM14.783 6.88a.483.483 0 00-.9 0l-.157.399a.484.484 0 01-.272.273l-.398.158a.486.486 0 000 .903l.398.157c.125.05.223.148.272.273l.157.4c.161.41.739.41.9 0l.157-.4a.484.484 0 01.272-.273l.398-.157a.486.486 0 000-.903l-.398-.158a.484.484 0 01-.272-.273z" stroke="#000"/></svg>