<svg width="512" height="512" xmlns="http://www.w3.org/2000/svg"><path d="M74.1 345.8c-2.6 3.3-7.3 3.8-10.5 1.2-3.3-2.6-3.8-7.3-1.2-10.5l25.8-32.7c3-3.9 8.9-3.7 11.8.1l37.3 47.3 30.3-38.4c2.6-3.2 7.2-3.8 10.5-1.2 3.2 2.6 3.8 7.3 1.2 10.5-23.3 29.5-46.6 59-69.8 88.5h228.8L223.9 265.7l-23.5 29.7c-2.6 3.2-7.3 3.8-10.5 1.2-3.3-2.6-3.8-7.3-1.2-10.5l29.3-37.2c3.1-3.9 8.9-3.7 11.8.1l116.4 147.4V196.8H15v199.7l26.3-33.3c2.6-3.3 7.3-3.8 10.5-1.2 3.3 2.6 3.8 7.3 1.2 10.5l-30.1 38.1h67.5l37.4-47.3L94 320.5zm20-133.6c10.3 0 19.6 4.2 26.4 10.9 6.8 6.7 10.9 16.1 10.9 26.4 0 10.3-4.2 19.6-10.9 26.4-6.7 6.7-16.1 10.9-26.4 10.9-10.3 0-19.6-4.2-26.4-10.9-6.8-6.7-10.9-16.1-10.9-26.4 0-10.3 4.2-19.6 10.9-26.4 6.7-6.7 16-10.9 26.4-10.9zm15.7 21.6c-4-4.1-9.6-6.5-15.8-6.5-6.2 0-11.7 2.5-15.8 6.5-4 4-6.5 9.6-6.5 15.8 0 6.2 2.5 11.7 6.5 15.8 4.1 4 9.6 6.5 15.8 6.5 6.2 0 11.7-2.5 15.8-6.5 4.1-4.1 6.5-9.6 6.5-15.8.1-6.2-2.4-11.8-6.5-15.8zm251.4 138h52.4l-20.5-41c-.6-1.1-.9-2.3-.9-3.6v-51.9c0-4.1 3.4-7.5 7.5-7.5s7.5 3.4 7.5 7.5v44.4H422V196.8h-14.8v44.4c0 4.1-3.3 7.5-7.5 7.5-4.1 0-7.5-3.3-7.5-7.5V157c0-6.7 2.7-12.7 7.1-17.1 4.6-4.5 10.7-7.1 17.1-7.1h26.1c6.7 0 12.7 2.7 17.1 7.1 4.4 4.4 7.1 10.4 7.1 17.1v170.1c0 1.3-.3 2.6-.9 3.6l-23.5 47.1c-2.6 5.2-7.1 8.9-13.1 8.9h-67.9v31.4c0 4.1-3.3 7.5-7.5 7.5H210.3v13.2c0 4.8 2 9.1 5.1 12.3 3.1 3.1 7.5 5.1 12.3 5.1h251.9c4.8 0 9.1-2 12.3-5.1 3.1-3.1 5.1-7.5 5.1-12.3V73.4c0-4.8-2-9.1-5.1-12.3-3.2-3.2-7.5-5.1-12.3-5.1h-173v63.9c0 8.9-3.6 17-9.5 22.9-5.9 5.9-14 9.5-22.9 9.5h-63.9v29.5h143.3c4.1 0 7.5 3.3 7.5 7.5v182.5zm75.7-175v122.9h14.7V196.8zm-241.6-15v-37c0-2.1.9-4 2.2-5.4l96.3-96.3c1.4-1.5 3.4-2.2 5.3-2.2h180.5c8.9 0 17 3.7 22.9 9.5 5.9 5.9 9.5 13.9 9.5 22.9v365.4c0 8.9-3.6 17-9.5 22.9-5.9 5.9-14 9.5-22.9 9.5H227.7c-8.9 0-17-3.6-22.9-9.5-5.9-5.9-9.5-14-9.5-22.9v-13.2H7.5c-4.1 0-7.5-3.3-7.5-7.5V189.3c0-4.1 3.4-7.5 7.5-7.5zm96.4-115.2L221 137.3h53.3c4.8 0 9.1-2 12.3-5.1 3.1-3.2 5.1-7.5 5.1-12.3zm160 115.2v-24.7c0-2.5-1-4.8-2.7-6.5-1.7-1.7-4.1-2.7-6.5-2.7h-26.1c-2.5 0-4.8 1-6.5 2.7-1.7 1.7-2.7 4-2.7 6.5v24.7zM429.4 370l17.6-35.3h-35.3z"/></svg>