<?xml version="1.0" encoding="UTF-8" standalone="no"?>
<!-- Uploaded to: SVG Repo, www.svgrepo.com, Generator: SVG Repo Mixer Tools -->

<svg
   fill="#000000"
   width="733.31897"
   height="733.31897"
   viewBox="0 0 21.999569 21.999569"
   version="1.1"
   id="svg1"
   sodipodi:docname="font-size.svg"
   xmlns:inkscape="http://www.inkscape.org/namespaces/inkscape"
   xmlns:sodipodi="http://sodipodi.sourceforge.net/DTD/sodipodi-0.dtd"
   xmlns="http://www.w3.org/2000/svg"
   xmlns:svg="http://www.w3.org/2000/svg">
  <defs
     id="defs1" />
  <sodipodi:namedview
     id="namedview1"
     pagecolor="#505050"
     bordercolor="#ffffff"
     borderopacity="1"
     inkscape:showpageshadow="0"
     inkscape:pageopacity="0"
     inkscape:pagecheckerboard="1"
     inkscape:deskcolor="#505050">
    <inkscape:page
       x="0"
       y="0"
       width="21.999569"
       height="21.999569"
       id="page2"
       margin="0"
       bleed="0" />
  </sodipodi:namedview>
  <path
     d="m 14.999786,3.9936404 v -1 h -3 V 11.99364 h 1 a 1,1 0 0 1 0,2 H 8.9997865 a 1,1 0 0 1 0,-2 h 1 V 2.9936404 h -3 v 1 a 1,1 0 0 1 -2,0 v -2 a 1,1 0 0 1 1,-1 h 9.9999995 a 1,1 0 0 1 1,1 v 2 a 1,1 0 0 1 -2,0 z m 3.707,9.2929996 a 1,1 0 0 0 -1.414,1.414 l 1.293,1.293 H 3.4137865 l 1.293,-1.293 a 1,1 0 0 0 -1.414,-1.414 l -3.00000005,3 a 1,1 0 0 0 0,1.414 l 3.00000005,3 a 1,1 0 1 0 1.414,-1.414 l -1.293,-1.293 H 18.585786 l -1.293,1.293 a 1,1 0 1 0 1.414,1.414 l 3,-3 a 1,1 0 0 0 0,-1.414 z"
     id="path1" />
</svg>
