<svg version="1.1" id="prefix__prefix__Capa_1" x="0" y="0" xml:space="preserve" width="438.936" height="438.936" xmlns="http://www.w3.org/2000/svg"><style id="style1">.prefix__prefix__st0{fill:#000}</style><path class="prefix__prefix__st0" d="M348.068 57.536h-39.7v-17.8c0-5.7-6.3-8.4-12-8.4h-30.8c-7.4-20.8-25.7-31.3-46.6-31.3-20.7-.8-39.5 11.9-46.5 31.3h-30.3c-5.7 0-11.5 2.6-11.5 8.4v17.8h-39.7c-23.5.3-42.8 18.8-43.9 42.3v299.4c0 23 20.9 39.7 43.9 39.7h257c23 0 43.9-16.7 43.9-39.7v-299.4c-1.1-23.5-20.3-42-43.8-42.3zm-196.5-5.2h28.7c5-.6 9-4.4 9.9-9.4 3.1-13.5 14.9-23.1 28.7-23.5 13.7.4 25.3 10.1 28.2 23.5.9 5.1 5.2 9 10.4 9.4h29.8v41.8h-135.7zm219.5 346.9c0 11.5-11.5 18.8-23 18.8h-257c-11.5 0-23-7.3-23-18.8v-299.4c1.1-12 11-21.2 23-21.4h39.7v26.6c.6 5.9 5.6 10.2 11.5 9.9h154.1c6 .3 11.2-4 12-9.9v-26.6h39.7c12 .2 21.9 9.5 23 21.4z" id="prefix__path1" fill="#000" fill-opacity="1"/><path class="prefix__prefix__st0" d="M179.168 233.636c-3.9-4.1-10.4-4.4-14.6-.5l-33.4 31.9-14.2-14.7c-3.9-4.1-10.4-4.4-14.6-.5-4 4.2-4 10.9 0 15.2l21.4 21.9c1.9 2.1 4.5 3.2 7.3 3.1 2.8 0 5.4-1.2 7.3-3.1l40.8-38.7c4-3.7 4.3-10 .6-14zm150 22.4h-120.2c-5.8 0-10.4 4.7-10.4 10.4s4.7 10.4 10.4 10.4h120.2c5.8 0 10.4-4.7 10.4-10.4s-4.7-10.4-10.4-10.4zm-150-106c-3.9-4.1-10.4-4.4-14.6-.5l-33.4 31.9-14.2-14.7c-3.9-4.1-10.4-4.4-14.6-.5-4 4.2-4 10.9 0 15.2l21.4 21.9c1.9 2.1 4.5 3.2 7.3 3.1 2.8 0 5.4-1.2 7.3-3.1l40.8-38.7c4-3.7 4.3-10 .6-14zm150 22.4h-120.2c-5.8 0-10.4 4.7-10.4 10.4s4.7 10.4 10.4 10.4h120.2c5.8 0 10.4-4.7 10.4-10.4s-4.7-10.4-10.4-10.4zm-150 144.8c-3.9-4.1-10.4-4.4-14.6-.5l-33.4 31.9-14.2-14.7c-3.9-4.1-10.4-4.4-14.6-.5-4 4.2-4 10.9 0 15.2l21.4 21.9c1.9 2.1 4.5 3.2 7.3 3.1 2.8 0 5.4-1.2 7.3-3.1l40.8-38.7c4-3.7 4.3-10 .6-14zm150 22.4h-120.2c-5.8 0-10.4 4.7-10.4 10.4s4.7 10.4 10.4 10.4h120.2c5.8 0 10.4-4.7 10.4-10.4s-4.7-10.4-10.4-10.4z" id="prefix__path2" fill="#000" fill-opacity="1"/></svg>