<svg height="469.858" viewBox="0 0 22.025 22.025" width="469.858" data-name="Layer 1" xmlns="http://www.w3.org/2000/svg"><path d="M14.012 15.518a1 1 0 01-1 1h-4a1 1 0 010-2h4a1 1 0 011 1zm-.293-9.707a1 1 0 00-1.414 0l-1.293 1.293L9.72 5.811a1 1 0 10-1.414 1.414l1.293 1.293-1.293 1.293a1 1 0 101.414 1.414l1.293-1.293 1.293 1.293a1 1 0 001.414-1.414l-1.293-1.293 1.293-1.293a1 1 0 000-1.414zm7.293 8.707h-4a1 1 0 000 2h4a1 1 0 000-2zm-.586-6l1.293-1.293a1 1 0 10-1.414-1.414l-1.293 1.293-1.293-1.293a1 1 0 10-1.414 1.414l1.293 1.293-1.293 1.293a1 1 0 101.414 1.414l1.293-1.293 1.293 1.293a1 1 0 001.414-1.414zm-15.414 6h-4a1 1 0 000 2h4a1 1 0 000-2zm.707-8.707a1 1 0 00-1.414 0L3.012 7.104 1.72 5.811A1 1 0 10.305 7.225l1.293 1.293L.305 9.811a1 1 0 101.414 1.414l1.293-1.293 1.293 1.293A1 1 0 105.72 9.811L4.426 8.518 5.72 7.225a1 1 0 000-1.414z"/></svg>