<svg width="715.21" height="715.21" viewBox="0 0 21.456 21.456" fill="none" xmlns="http://www.w3.org/2000/svg"><path d="M.474 15.41A.74.74 0 010 14.728c0-.293.148-.536.405-.664l.145-.072h4.28l-.178-.372c-.454-.948-.643-1.798-.645-2.898 0-.808.083-1.363.31-2.065.09-.278.117-.331.233-.447a.717.717 0 011.173.189c.107.218.101.382-.025.793-.173.56-.204.8-.204 1.544 0 .577.008.699.065.98.14.693.435 1.4.813 1.953l.193.28h8.329l.174-.26a5.27 5.27 0 00.867-2.227 6.517 6.517 0 000-1.48 5.26 5.26 0 00-5.744-4.494 5.989 5.989 0 00-1.12.238c-.113.038-.264.07-.337.07a.726.726 0 01-.655-1.058c.112-.226.25-.322.637-.445a6.338 6.338 0 012.027-.298c1.477.002 2.79.435 4.006 1.323.339.247 1.062.955 1.304 1.277.732.972 1.166 2 1.347 3.186.07.453.069 1.43-.001 1.895a6.873 6.873 0 01-.608 1.972l-.164.344h4.28l.146.072c.261.13.397.356.398.661 0 .15-.015.216-.078.337a.752.752 0 01-.42.36c-.071.02-3.34.029-10.238.028-8.544-.001-10.15-.007-10.242-.04zM10.435 2.389a.797.797 0 01-.37-.352c-.044-.087-.052-.194-.06-.761-.01-.755.004-.837.17-1.026.168-.19.3-.25.555-.25.239 0 .372.054.525.214.188.197.203.271.204 1.006 0 .636-.002.664-.066.8-.177.374-.6.536-.958.369zM3.813 4.739c-.11-.035-.196-.1-.445-.342-.361-.35-.441-.487-.44-.75 0-.403.314-.722.714-.725.273-.003.36.043.698.372.358.348.438.485.438.747a.737.737 0 01-.515.702.658.658 0 01-.45-.004zM.49 11.412a.726.726 0 01-.49-.688c0-.225.072-.388.24-.541.205-.19.326-.212 1.066-.2.575.008.633.014.738.07.47.251.561.843.183 1.197-.205.192-.318.216-1.011.214-.486 0-.601-.009-.727-.052zM17.163 4.731a.736.736 0 01-.416-.999c.089-.187.632-.72.79-.774a.74.74 0 01.989.764c-.021.227-.102.351-.449.688-.248.242-.316.293-.443.33a.636.636 0 01-.471-.009z" fill="#000"/><path d="M19.5 11.414c-.63-.218-.682-1.042-.086-1.36.107-.057.16-.063.74-.071.734-.012.862.012 1.06.194a.678.678 0 01.239.545.67.67 0 01-.246.548c-.196.172-.316.196-.988.194-.476 0-.602-.01-.72-.05zM3.473 18.41a.729.729 0 01-.392-.352.553.553 0 01-.08-.333c0-.1.02-.228.043-.283a.808.808 0 01.373-.38l.14-.066H17.903l.14.065a.72.72 0 01.34.982.864.864 0 01-.179.242c-.222.183.364.17-7.485.168-6.117-.002-7.148-.008-7.245-.043zM6.476 21.414a.79.79 0 01-.48-.608.742.742 0 01.205-.584c.242-.259-.17-.237 4.543-.237h4.154l.131.064c.291.144.472.464.43.763a.773.773 0 01-.538.616c-.081.021-1.4.03-4.225.028-3.49-.002-4.124-.008-4.22-.042z" fill="#000"/></svg>