<?xml version="1.0" encoding="UTF-8" standalone="no"?>
<!-- Uploaded to: SVG Repo, www.svgrepo.com, Generator: SVG Repo Mixer Tools -->

<svg
   fill="#000000"
   width="685.71399"
   height="685.71399"
   viewBox="0 0 11.999995 11.999995"
   role="img"
   focusable="false"
   aria-hidden="true"
   version="1.1"
   id="svg1"
   xmlns="http://www.w3.org/2000/svg"
   xmlns:svg="http://www.w3.org/2000/svg">
  <defs
     id="defs1" />
  <path
     d="M 0.6249415,0 H 11.375054 V 1.26471 H 0.6249415 Z M 5.9501306,12 C 4.5316409,12 3.3958455,11.53344 2.5425555,10.60034 1.6892654,9.6669498 1.2625574,8.4534697 1.2625574,6.95874 c 0,-1.60653 0.4348966,-2.88791 1.3045428,-3.84434 0.8698141,-0.95625 2.0533131,-1.43438 3.5510009,-1.43438 1.3809693,0 2.4937737,0.46423 3.3382449,1.39302 0.844178,0.92863 1.266289,2.14255 1.266289,3.64147 0,1.6290897 -0.432609,2.9172498 -1.297783,3.86456 C 8.559699,11.52637 7.4011856,12 5.9501306,12 Z m 0.082746,-9.31663 c -1.0316117,0 -1.8695955,0.3828699 -2.5138672,1.1489399 -0.6442298,0.76588 -0.9664182,1.77217 -0.9664182,3.01897 0,1.2452797 0.3138739,2.2475299 0.9417685,3.0064899 0.6278737,0.7595802 1.4471917,1.1390502 2.457933,1.1390502 1.0780765,0 1.9275033,-0.36219 2.5487421,-1.0862502 0.6212602,-0.72405 0.9318792,-1.7374402 0.9318792,-3.0392099 0,-1.3348 -0.30199,-2.36641 -0.9050039,-3.09511 C 7.924875,3.0475499 7.0930432,2.6833699 6.0328766,2.68337 Z"
     id="path1" />
</svg>
