<svg width="685.714" height="685.714" viewBox="0 0 12 12" aria-hidden="true" xmlns="http://www.w3.org/2000/svg"><path d="M.625 0h10.75v1.265H.625zM5.95 12c-1.418 0-2.554-.467-3.407-1.4-.854-.933-1.28-2.147-1.28-3.641 0-1.607.434-2.888 1.304-3.845.87-.956 2.053-1.434 3.551-1.434 1.381 0 2.494.464 3.338 1.393.845.929 1.267 2.143 1.267 3.642 0 1.629-.433 2.917-1.298 3.864C8.56 11.526 7.4 12 5.95 12zm.083-9.317c-1.032 0-1.87.383-2.514 1.15-.644.765-.966 1.771-.966 3.018 0 1.246.313 2.248.941 3.007.628.76 1.448 1.139 2.458 1.139 1.078 0 1.928-.362 2.549-1.086.621-.724.932-1.738.932-3.04 0-1.334-.302-2.366-.905-3.095-.603-.728-1.435-1.093-2.495-1.093z"/></svg>