<svg version="1.1" id="prefix__prefix__Icons" x="0" y="0" xml:space="preserve" width="484.5" height="484.5" xmlns="http://www.w3.org/2000/svg"><style id="style1">.prefix__prefix__st0{fill:#000}</style><path class="prefix__prefix__st0" d="M456.7 427.25h-429c-15.3 0-27.7-12.4-27.7-27.7v-269.8c0-15.3 12.4-27.7 27.7-27.7H167l20.8-34.6c3.7-6.3 10.5-10.2 17.9-10.2h124.5c7.3 0 14.1 3.9 17.9 10.2l20.8 34.6h87.9c15.3 0 27.7 12.4 27.7 27.7v269.8c-.1 15.3-12.5 27.7-27.8 27.7zm-429-311.4c-7.6 0-13.8 6.2-13.8 13.8v269.8c0 7.6 6.2 13.8 13.8 13.8h429c7.6 0 13.8-6.2 13.8-13.8v-269.7c0-7.6-6.2-13.8-13.8-13.8h-92c-2.4 0-4.7-1.3-6-3.4L336 74.35c-1.2-2.1-3.5-3.4-6-3.4H205.6c-2.4 0-4.7 1.3-6 3.4l-22.6 38.2c-1.2 2.1-3.5 3.4-6 3.4H27.7z" id="prefix__path1" fill="#000" fill-opacity="1"/><path class="prefix__prefix__st0" d="M123.1 115.85H67.3c-3.8 0-6.9-3.1-6.9-6.9v-35.6c0-7.1 5.8-12.9 12.9-12.9h43.9c7.1 0 12.9 5.8 12.9 12.9v35.6c-.1 3.8-3.2 6.9-7 6.9zm-48.9-13.8h42v-27.7h-42zm26.4 230.4H7c-3.8 0-6.9-3.1-6.9-6.9v-119.7c0-3.8 3.1-6.9 6.9-6.9h93.7c3.8 0 6.9 3.1 6.9 6.9 0 3.8-3.1 6.9-6.9 6.9H13.9v105.9h86.8c3.8 0 6.9 3.1 6.9 6.9 0 3.8-3.1 6.9-7 6.9zm376.8 0H298.2c-3.8 0-6.9-3.1-6.9-6.9 0-3.8 3.1-6.9 6.9-6.9h172.4v-105.9H298.2c-3.8 0-6.9-3.1-6.9-6.9 0-3.8 3.1-6.9 6.9-6.9h179.3c3.8 0 6.9 3.1 6.9 6.9v119.7c0 3.8-3.1 6.9-7 6.9z" id="prefix__path2" fill="#000" fill-opacity="1"/><path class="prefix__prefix__st0" d="M199 388.45c-67.8 0-122.8-55-122.8-122.8s55-122.8 122.8-122.8 122.8 55 122.8 122.8c-.1 67.8-55 122.8-122.8 122.8zm0-231.7c-60.2 0-109 48.8-109 109s48.8 109 109 109 109-48.8 109-109c-.1-60.2-48.9-109-109-109z" id="prefix__path3" fill="#000" fill-opacity="1"/><path class="prefix__prefix__st0" d="M199 343.75c-43.1.1-78.1-34.7-78.3-77.8-.2-43.1 34.7-78.1 77.8-78.3 43.1-.2 78.1 34.7 78.3 77.8v.2c0 43-34.8 77.9-77.8 78.1zm0-142.3c-35.5-.1-64.3 28.5-64.4 64-.1 35.5 28.5 64.3 64 64.4 35.5.1 64.3-28.5 64.4-64v-.2c-.1-35.3-28.7-64-64-64.2zm216.2-20.4H346c-3.8 0-6.9-3.1-6.9-6.9v-33.5c0-3.8 3.1-6.9 6.9-6.9h69.2c3.8 0 6.9 3.1 6.9 6.9v33.5c0 3.8-3.1 6.9-6.9 6.9zm-62.3-13.8h55.4v-19.6h-55.4zm11.8-51.4H171c-3.8 0-6.9-3.1-6.9-6.9 0-3.8 3.1-6.9 6.9-6.9h193.7c3.8 0 6.9 3.1 6.9 6.9 0 3.8-3 6.9-6.9 6.9z" id="prefix__path4" fill="#000" fill-opacity="1"/></svg>