<svg version="1.1" id="prefix__prefix__Icons" x="0" y="0" xml:space="preserve" width="484.3" height="484.3" xmlns="http://www.w3.org/2000/svg"><style id="style1">.prefix__prefix__st0{fill:#000}</style><path class="prefix__prefix__st0" d="M117.649 124.5H6.949c-3.8 0-6.9-3.1-6.9-6.9V6.9c0-3.8 3.1-6.9 6.9-6.9h110.7c3.8 0 6.9 3.1 6.9 6.9v110.7c0 3.8-3.1 6.9-6.9 6.9zm-103.8-13.9h96.9V13.8h-96.9zm103.8 373.7H6.949c-3.8 0-6.9-3.1-6.9-6.9V366.6c0-3.8 3.1-6.9 6.9-6.9h110.7c3.8 0 6.9 3.1 6.9 6.9v110.7c0 3.9-3.1 7-6.9 7zm-103.8-13.9h96.9v-96.9h-96.9zm463.5 13.9h-110.7c-3.8 0-6.9-3.1-6.9-6.9V366.6c0-3.8 3.1-6.9 6.9-6.9h110.7c3.8 0 6.9 3.1 6.9 6.9v110.7c.1 3.9-3 7-6.9 7zm-103.7-13.9h96.9v-96.9h-96.9zm103.7-345.9h-110.7c-3.8 0-6.9-3.1-6.9-6.9V6.9c0-3.8 3.1-6.9 6.9-6.9h110.7c3.8 0 6.9 3.1 6.9 6.9v110.7c.1 3.8-3 6.9-6.9 6.9zm-103.7-13.9h96.9V13.8h-96.9z" id="prefix__path1" fill="#000" fill-opacity="1"/><path class="prefix__prefix__st0" d="M117.649 55.3h249.1v13.8h-249.1zm-62.3 62.3h13.8v249.1h-13.8zm62.3 297.5h249.1v13.8h-249.1zm297.5-297.5h13.8v249.1h-13.8zm-276.8 235.2c-1.8 0-3.6-.7-4.9-2-1.8-1.8-2.4-4.5-1.7-6.9l19.9-60.3c.3-1 .9-1.9 1.7-2.7l139.6-139.2c13.8-13.6 36-13.5 49.6.2 13.6 13.7 13.6 35.7 0 49.4l-139.5 139.6c-.8.8-1.7 1.3-2.7 1.7l-59.8 20.3c-.7 0-1.4 0-2.2-.1zm26-63l-15 45.1 45.1-15 138.4-138.4c8.3-8.3 8.3-21.8 0-30.1-8.4-8-21.7-8-30.1 0z" id="prefix__path2" fill="#000" fill-opacity="1"/><path class="prefix__prefix__st0" d="M153.349 290.9l9.8-9.8 39.9 39.9-9.8 9.8zm119.6-119.5l9.8-9.8 39.9 39.9-9.8 9.8z" id="prefix__path3" fill="#000" fill-opacity="1"/><path class="prefix__prefix__st0" d="M173.349 301.1l119.6-119.6 9.8 9.8-119.6 119.6z" id="prefix__path4" fill="#000" fill-opacity="1"/></svg>