<svg width="511.7" height="512" xmlns="http://www.w3.org/2000/svg"><path d="M434.5 158.1h-13.3c.3-3.1.5-6.2.5-9.3 0-47.3-38.5-85.8-85.8-85.8-14.8 0-28.9 3.7-41.5 10.7C276.7 29.9 233.7 0 184.9 0 119.8 0 66.7 53 66.7 118.2v40.6C29.1 163.9 0 196.2 0 235.2c0 42.5 34.6 77.1 77.1 77.1h24.1V497c0 8.3 6.7 15 15 15h279.3c8.3 0 15-6.7 15-15V312.2h24.1c42.5 0 77.1-34.6 77.1-77.1-.1-42.4-34.7-77-77.2-77zM172.4 265.2c2.9 4.5 4.5 9.7 4.5 15.2 0 15.6-12.9 28.3-28.7 28.3-6.3 0-12.2-2-17.1-5.6v-37.9zm-41.2 70.9c5.5 1.7 11.2 2.6 17.1 2.6 32.3 0 58.7-26.1 58.7-58.3 0-5.2-.7-10.3-2-15.2h175.6V405l-30.4-52.6c-2.7-4.6-7.6-7.5-13-7.5s-10.3 2.9-13 7.5L295.5 402l-28.7-49.6c-2.7-4.6-7.6-7.5-13-7.5s-10.3 2.9-13 7.5L166 482h-34.9zM307 482H200.7l53.2-92.1zm34.7 0l-28.9-50 24.3-42.1 43.4 75.1v17zm92.8-199.8h-24.1v-32.1c0-8.3-6.7-15-15-15H116.2c-8.3 0-15 6.7-15 15v32.1H77.1c-26 0-47.1-21.1-47.1-47.1S51.1 188 77.1 188h4.7c8.3 0 15-6.7 15-15v-54.9c0-48.6 39.6-88.2 88.2-88.2 42.2 0 78.6 30 86.6 71.3 1.1 5.4 5 9.8 10.3 11.5 5.3 1.6 11 .2 15-3.7 10.4-10.3 24.3-16 39.1-16 30.7 0 55.8 25 55.8 55.8 0 6.6-1.1 13-3.4 19.2-1.7 4.6-1 9.7 1.8 13.8 2.8 4 7.4 6.4 12.3 6.4h32.1c26 0 47.1 21.1 47.1 47.1-.1 25.8-21.2 46.9-47.2 46.9z"/></svg>