<svg width="737.5" height="737.5" viewBox="0 0 29.5 29.5" xmlns="http://www.w3.org/2000/svg"><path d="M14.75 21.721H8.77a1.252 1.252 0 01-1.25-1.25V14.75a.75.75 0 00-1.5 0v5.721a2.754 2.754 0 002.75 2.75h5.981a.75.75 0 000-1.5zm0-14.201h5.721c.69.001 1.249.56 1.25 1.25v5.981a.75.75 0 001.5 0v-5.98a2.754 2.754 0 00-2.75-2.75H14.75a.75.75 0 000 1.5zM11.5 8.75v-6A2.754 2.754 0 008.75 0h-6A2.754 2.754 0 000 2.75v6a2.754 2.754 0 002.75 2.75h6a2.754 2.754 0 002.75-2.75zm-10 0v-6c.001-.69.56-1.249 1.25-1.25h6c.69.001 1.249.56 1.25 1.25v6A1.252 1.252 0 018.75 10h-6A1.252 1.252 0 011.5 8.75zM26.75 18h-6A2.754 2.754 0 0018 20.75v6a2.754 2.754 0 002.75 2.75h6a2.754 2.754 0 002.75-2.75v-6A2.754 2.754 0 0026.75 18zM28 26.75A1.252 1.252 0 0126.75 28h-6a1.252 1.252 0 01-1.25-1.25v-6c.001-.69.56-1.249 1.25-1.25h6c.69.001 1.249.56 1.25 1.25z"/></svg>