<?xml version="1.0" encoding="UTF-8" standalone="no"?>
<!-- Uploaded to: SVG Repo, www.svgrepo.com, Generator: SVG Repo Mixer Tools -->

<svg
   fill="#000000"
   width="737.5"
   height="737.5"
   viewBox="0 0 29.5 29.5"
   version="1.1"
   id="svg1"
   xmlns="http://www.w3.org/2000/svg"
   xmlns:svg="http://www.w3.org/2000/svg"
   xmlns:rdf="http://www.w3.org/1999/02/22-rdf-syntax-ns#"
   xmlns:cc="http://creativecommons.org/ns#"
   xmlns:dc="http://purl.org/dc/elements/1.1/">
  <defs
     id="defs1" />
  <title
     id="title1">send-back</title>
  <path
     d="M 14.75,21.721 H 8.77 C 8.08,21.72 7.521,21.161 7.52,20.471 V 14.75 C 7.52,14.336 7.184,14 6.77,14 6.356,14 6.02,14.336 6.02,14.75 v 0 5.721 c 0.002,1.518 1.232,2.748 2.75,2.75 h 5.981 c 0.414,0 0.75,-0.336 0.75,-0.75 0,-0.414 -0.336,-0.75 -0.75,-0.75 v 0 z m 0,-14.201 h 5.721 c 0.69,0.001 1.249,0.56 1.25,1.25 v 5.981 c 0,0.414 0.336,0.75 0.75,0.75 0.414,0 0.75,-0.336 0.75,-0.75 v 0 -5.98 C 23.219,7.253 21.989,6.023 20.471,6.021 H 14.75 c -0.414,0 -0.75,0.336 -0.75,0.75 0,0.414 0.336,0.75 0.75,0.75 v 0 z M 11.5,8.75 v -6 C 11.498,1.232 10.268,0.002 8.75,0 h -6 C 1.232,0.002 0.002,1.232 0,2.75 v 6 c 0.002,1.518 1.232,2.748 2.75,2.75 h 6 c 1.518,-0.002 2.748,-1.232 2.75,-2.75 z m -10,0 v -6 C 1.501,2.06 2.06,1.501 2.75,1.5 h 6 C 9.44,1.501 9.999,2.06 10,2.75 v 6 C 9.999,9.44 9.44,9.999 8.75,10 h -6 C 2.06,9.999 1.501,9.44 1.5,8.75 Z M 26.75,18 h -6 c -1.518,0.002 -2.748,1.232 -2.75,2.75 v 6 c 0.002,1.518 1.232,2.748 2.75,2.75 h 6 c 1.518,-0.002 2.748,-1.232 2.75,-2.75 v -6 C 29.498,19.232 28.268,18.002 26.75,18 Z M 28,26.75 c -0.001,0.69 -0.56,1.249 -1.25,1.25 h -6 C 20.06,27.999 19.501,27.44 19.5,26.75 v -6 c 0.001,-0.69 0.56,-1.249 1.25,-1.25 h 6 c 0.69,0.001 1.249,0.56 1.25,1.25 v 0 z"
     id="path1" />
  <metadata
     id="metadata1">
    <rdf:RDF>
      <cc:Work
         rdf:about="">
        <dc:title>send-back</dc:title>
      </cc:Work>
    </rdf:RDF>
  </metadata>
</svg>
