<svg width="737.5" height="737.5" viewBox="0 0 29.5 29.5" xmlns="http://www.w3.org/2000/svg"><path d="M12.75 20h-10a1.252 1.252 0 01-1.25-1.25v-16c.001-.69.56-1.249 1.25-1.25h16c.69.001 1.249.56 1.25 1.25v10a.75.75 0 001.5 0v-10A2.754 2.754 0 0018.75 0h-16A2.754 2.754 0 000 2.75v16a2.754 2.754 0 002.75 2.75h10a.75.75 0 000-1.5zm14-4h-8A2.754 2.754 0 0016 18.75v8a2.754 2.754 0 002.75 2.75h8a2.754 2.754 0 002.75-2.75v-8A2.754 2.754 0 0026.75 16zM28 26.75A1.252 1.252 0 0126.75 28h-8a1.252 1.252 0 01-1.25-1.25v-8c.001-.69.56-1.249 1.25-1.25h8c.69.001 1.249.56 1.25 1.25z"/></svg>