<svg width="702.798" height="739.196" viewBox="0 0 45.682 48.048" data-name="Layer 1" xmlns="http://www.w3.org/2000/svg"><path d="M45.305 3.64l-2.1-2.1a1.67 1.67 0 00-2.4.3l-11.41 11.41c-.77-1.3-1.51-2.61-2.21-4a36.5 36.5 0 01-3.15-8.36c-.13-.53-.39-.91-1-.89-.61.02-.86.4-1 .93-.06.26-.11.51-.17.76a48.3 48.3 0 01-4.06 10.05 97.47 97.47 0 01-6.87 11.3 16 16 0 00-3 11.12c0 .14 0 .29.06.43l-7.39 7.45a1.87 1.87 0 00-.3 2.4l2.1 2.1a1.67 1.67 0 002.4-.3l40.2-40.2a1.67 1.67 0 00.3-2.4zm-10.08 18.19l-22 22.31a14.47 14.47 0 009.8 3.9 15.48 15.48 0 007-1.44c4.94-2.51 8.11-6.4 8.94-12a15.22 15.22 0 00-3.16-11.9c-.13-.22-.42-.66-.58-.87z"/></svg>